<svg width="20" height="20" viewBox="0 0 20 20" fill="none" xmlns="http://www.w3.org/2000/svg">
<path d="M7.497 18.5H5.83c-1.919 0-3.5-1.484-3.5-3.347V9.083c0-.901.379-1.761 1.048-2.389l4.756-4.465c1.036-.972 2.69-.972 3.726 0l4.756 4.465c.668.627 1.048 1.488 1.048 2.389v6.069c0 1.863-1.581 3.347-3.5 3.347h-1.667-5zm2.994-14.813c-.266-.25-.722-.25-.988 0L4.747 8.153c-.269.253-.417.587-.417.931v6.069c0 .729.658 1.347 1.5 1.347h.666l.001-3.167c0-1.416 1.104-2.574 2.498-2.661l.169-.005h1.667c1.473 0 2.667 1.194 2.667 2.667l-.001 3.167h.667c.792 0 1.422-.547 1.493-1.22l.007-.127V9.083c0-.344-.147-.678-.417-.931l-4.756-4.465zm.339 8.979H9.163c-.368 0-.667.298-.667.667L8.496 16.5h3l.001-3.167c0-.335-.247-.612-.568-.659l-.099-.007z" fill="#6B7280"/>
</svg>
